<svg xmlns="http://www.w3.org/2000/svg"><defs><style>.fil0,.fil3{fill:#61a8de}.fil4{fill:#fff}.fil1,.fil2{fill:#fefefe;fill-rule:nonzero}.fil2{fill:#fff}</style></defs><symbol id="facebook-2" viewBox="0 0 512 512"><path d="M134.941 272.691h56.123v231.051a8.256 8.256 0 0 0 8.258 8.258h95.159a8.256 8.256 0 0 0 8.258-8.258V273.78h64.519a8.26 8.26 0 0 0 8.204-7.315l9.799-85.061a8.259 8.259 0 0 0-8.202-9.203h-74.316V118.88c0-16.073 8.654-24.224 25.726-24.224h48.59a8.258 8.258 0 0 0 8.258-8.258V8.319a8.256 8.256 0 0 0-8.258-8.258h-66.965A65.863 65.863 0 0 0 307.027 0c-11.619 0-52.006 2.281-83.909 31.63-35.348 32.524-30.434 71.465-29.26 78.217v62.352H134.94a8.256 8.256 0 0 0-8.258 8.258v83.975a8.26 8.26 0 0 0 8.259 8.259z" fill="#385c8e"/></symbol><symbol id="facebook" viewBox="0 0 49.652 49.652"><path d="M24.826 0C11.137 0 0 11.137 0 24.826c0 13.688 11.137 24.826 24.826 24.826 13.688 0 24.826-11.138 24.826-24.826C49.652 11.137 38.516 0 24.826 0zM31 25.7h-4.039v14.396h-5.985V25.7h-2.845v-5.088h2.845v-3.291c0-2.357 1.12-6.04 6.04-6.04l4.435.017v4.939h-3.219c-.524 0-1.269.262-1.269 1.386v2.99h4.56L31 25.7z"/></symbol><symbol id="instagram-1" viewBox="0 0 512 512"><path d="M75 512h362c41.355 0 75-33.645 75-75V75c0-41.355-33.645-75-75-75H75C33.645 0 0 33.645 0 75v362c0 41.355 33.645 75 75 75zM30 75c0-24.813 20.188-45 45-45h362c24.813 0 45 20.188 45 45v362c0 24.813-20.188 45-45 45H75c-24.813 0-45-20.188-45-45zm0 0"/><path d="M256 391c74.438 0 135-60.563 135-135s-60.563-135-135-135-135 60.563-135 135 60.563 135 135 135zm0-240c57.898 0 105 47.102 105 105s-47.102 105-105 105-105-47.102-105-105 47.102-105 105-105zm0 0M406 151c24.813 0 45-20.188 45-45s-20.188-45-45-45-45 20.188-45 45 20.188 45 45 45zm0-60c8.27 0 15 6.73 15 15s-6.73 15-15 15-15-6.73-15-15 6.73-15 15-15zm0 0"/></symbol><symbol id="instagram" viewBox="0 0 89.758 89.758"><path d="M58.255 23.88H31.503c-4.27 0-7.744 3.474-7.744 7.744v26.752c0 4.27 3.474 7.745 7.744 7.745h26.752c4.27 0 7.745-3.474 7.745-7.745V31.624c0-4.27-3.474-7.744-7.745-7.744zM44.879 58.906c-7.667 0-13.905-6.238-13.905-13.906 0-7.667 6.238-13.905 13.905-13.905 7.668 0 13.906 6.238 13.906 13.905 0 7.667-6.239 13.906-13.906 13.906zM59.232 33.97a3.294 3.294 0 0 1-3.291-3.29 3.294 3.294 0 0 1 3.291-3.29 3.294 3.294 0 0 1 3.29 3.29 3.294 3.294 0 0 1-3.29 3.29z"/><path d="M44.879 36.971c-4.426 0-8.03 3.602-8.03 8.028 0 4.428 3.604 8.031 8.03 8.031 4.428 0 8.029-3.603 8.029-8.031 0-4.425-3.602-8.028-8.029-8.028z"/><path d="M44.879 0C20.094 0 0 20.094 0 44.879c0 24.785 20.094 44.879 44.879 44.879 24.785 0 44.879-20.094 44.879-44.879C89.758 20.094 69.664 0 44.879 0zm26.996 58.376c0 7.511-6.109 13.62-13.62 13.62H31.503c-7.51 0-13.62-6.109-13.62-13.62V31.624c0-7.51 6.11-13.62 13.62-13.62h26.752c7.511 0 13.62 6.11 13.62 13.62v26.752z"/></symbol><symbol id="star" viewBox="0 0 28.5 26.187"><path data-name="Polygon 3" class="cls-1" d="M28.506 9.712l-7.422 6.731 1.768 9.463-8.75-4.519-8.87 4.8 2.013-9.524-7.25-6.494 10-1.367 4.389-8.818 4.164 8.679z"/></symbol><symbol id="telegram-1" viewBox="0 -31 512 512"><path d="M123.195 260.738l63.68 159.188 82.902-82.903L411.918 450 512 0 0 213.266zm242.5-131.629L208.98 272.051l-19.52 73.566-36.058-90.164zm0 0" class="active-path"/></symbol><symbol id="telegram-2" viewBox="0 0 15893 15893"><g id="&#x421;&#x43B;&#x43E;&#x439;_x0020_1"><g id="_1906267947488"><path class="fil0" d="M7947 710c3997 0 7237 3240 7237 7237s-3240 7237-7237 7237S710 11944 710 7947 3950 710 7947 710z"/><path class="fil1" d="M7947 292c2113 0 4027 856 5413 2242 1385 1385 2242 3299 2242 5413 0 2113-857 4027-2242 5413-1386 1385-3300 2242-5413 2242-2114 0-4028-857-5413-2242-1386-1386-2242-3300-2242-5413 0-2114 856-4028 2242-5413C3919 1148 5833 292 7947 292zm4822 2833c-1234-1234-2939-1997-4822-1997s-3588 763-4822 1997-1997 2939-1997 4822 763 3588 1997 4822 2939 1997 4822 1997 3588-763 4822-1997 1997-2939 1997-4822-763-3588-1997-4822z"/><path class="fil2" d="M7947 0c1074 0 2100 214 3038 602 974 404 1849 994 2581 1726 731 731 1321 1606 1725 2581 388 937 602 1963 602 3038 0 1074-214 2100-602 3038-404 974-994 1849-1725 2581-732 731-1607 1321-2581 1725-938 388-1964 602-3038 602-1075 0-2101-214-3038-602-975-404-1850-994-2581-1725-732-732-1322-1607-1726-2581C214 10047 0 9021 0 7947c0-1075 214-2101 602-3038 404-975 994-1850 1726-2581 731-732 1606-1322 2581-1726C5846 214 6872 0 7947 0zm2817 1140c-867-359-1818-557-2817-557-1000 0-1951 198-2817 557-899 373-1710 920-2390 1600S1513 4231 1140 5130c-359 866-557 1817-557 2817 0 999 198 1950 557 2817 373 899 920 1709 1600 2389s1491 1228 2390 1600c866 359 1817 557 2817 557 999 0 1950-198 2817-557 899-372 1709-920 2389-1600s1228-1490 1600-2389c359-867 557-1818 557-2817 0-1000-198-1951-557-2817-372-899-920-1710-1600-2390s-1490-1227-2389-1600zm1798 2191c-1181-1181-2813-1912-4615-1912-886 0-1730 176-2498 494-796 330-1515 815-2118 1418S2243 4653 1913 5449c-318 768-494 1612-494 2498s176 1729 494 2497c330 797 815 1515 1418 2118s1322 1088 2118 1419c768 318 1612 493 2498 493s1729-175 2497-493c797-331 1515-816 2118-1419s1088-1321 1419-2118c318-768 493-1611 493-2497s-175-1730-493-2498c-331-796-816-1515-1419-2118zM7947 836c1963 0 3741 796 5028 2083 654 654 1182 1437 1543 2309 348 839 539 1757 539 2719 0 961-191 1879-539 2718-361 872-889 1655-1543 2310-655 654-1438 1182-2310 1543-839 348-1757 539-2718 539-962 0-1880-191-2719-539-872-361-1655-889-2309-1543-655-655-1183-1438-1544-2310-347-839-539-1757-539-2718 0-962 192-1880 539-2719 361-872 889-1655 1544-2309 654-655 1437-1183 2309-1544 839-347 1757-539 2719-539z"/><path class="fil3" d="M4197 12976h7789c15-15 31-29 48-42 18-24 38-44 59-65l44-59c15-20 32-37 49-55l17-24 98-157c6-10 12-19 18-27l61-81c16-22 34-39 53-58l120-172 119-178c71-107 186-166 304-170V4146c-14-18-26-36-38-56-42-37-75-83-97-135-14-25-25-50-34-76-30-31-54-60-74-99l3 8-17-17c-27-27-49-58-66-90-14-17-27-36-37-55-19-18-37-37-56-55-35-20-66-45-94-74l-7-7c-34-19-64-42-89-69l-34-33c-46-20-88-48-123-83l7 7c-20-14-40-27-59-42-22-11-42-25-61-40-33-18-63-40-89-67l-61-61c-53-53-87-117-103-185H4397c-15 9-30 16-45 24l-102 67c-33 23-65 37-103 49l-9 6-154 116c-13 10-27 18-41 26-28 28-57 55-93 77l-162 97-57 57v-138c0 80-26 161-77 229-1 5-3 10-4 15v-9c-3 73-26 145-69 206-9 47-28 93-56 136l-41 60c-20 31-42 53-68 79-108 108-264 138-398 90l6 7647c25 14 48 30 71 46l13 6c38 18 74 43 106 75l20 20 40 41c36 35 68 65 95 108l57 92-7-5c28 19 50 40 74 64 19 18 37 39 52 62l81 122c23 34 45 66 64 102 38 26 71 60 98 100l20 30c16 16 33 32 49 50 31 17 60 38 86 65l149 149 61 36c4 3 9 6 13 8 7 3 15 6 22 9 39 10 76 25 109 45z"/><path class="fil4" d="M10838 5137L4111 7759c-218 85-205 397 19 464l1710 504 638 2025c66 211 334 275 489 117l884-903 1734 1273c213 156 515 40 569-217l1148-5491c56-269-208-493-464-394zm-844 1219L6870 9119c-31 28-51 66-56 107l-120 1070c-4 34-53 39-63 6l-495-1595c-23-73 7-152 72-193l3690-2288c84-53 171 64 96 130z"/></g></g></symbol><symbol id="viber-1" viewBox="0 0 308 308"><path d="M227.904 176.981c-.6-.288-23.054-11.345-27.044-12.781-1.629-.585-3.374-1.156-5.23-1.156-3.032 0-5.579 1.511-7.563 4.479-2.243 3.334-9.033 11.271-11.131 13.642-.274.313-.648.687-.872.687-.201 0-3.676-1.431-4.728-1.888-24.087-10.463-42.37-35.624-44.877-39.867-.358-.61-.373-.887-.376-.887.088-.323.898-1.135 1.316-1.554 1.223-1.21 2.548-2.805 3.83-4.348a140.77 140.77 0 0 1 1.812-2.153c1.86-2.164 2.688-3.844 3.648-5.79l.503-1.011c2.344-4.657.342-8.587-.305-9.856-.531-1.062-10.012-23.944-11.02-26.348-2.424-5.801-5.627-8.502-10.078-8.502-.413 0 0 0-1.732.073-2.109.089-13.594 1.601-18.672 4.802C90 87.918 80.89 98.74 80.89 117.772c0 17.129 10.87 33.302 15.537 39.453.116.155.329.47.638.922 17.873 26.102 40.154 45.446 62.741 54.469 21.745 8.686 32.042 9.69 37.896 9.69h.001c2.46 0 4.429-.193 6.166-.364l1.102-.105c7.512-.666 24.02-9.22 27.775-19.655 2.958-8.219 3.738-17.199 1.77-20.458-1.348-2.216-3.671-3.331-6.612-4.743z"/><path d="M156.734 0C73.318 0 5.454 67.354 5.454 150.143c0 26.777 7.166 52.988 20.741 75.928L.212 302.716a3.998 3.998 0 0 0 4.999 5.096l79.92-25.396c21.87 11.685 46.588 17.853 71.604 17.853C240.143 300.27 308 232.923 308 150.143 308 67.354 240.143 0 156.734 0zm0 268.994c-23.539 0-46.338-6.797-65.936-19.657a3.996 3.996 0 0 0-3.406-.467l-40.035 12.726 12.924-38.129a4.002 4.002 0 0 0-.561-3.647c-14.924-20.392-22.813-44.485-22.813-69.677 0-65.543 53.754-118.867 119.826-118.867 66.064 0 119.812 53.324 119.812 118.867.001 65.535-53.746 118.851-119.811 118.851z"/></symbol><symbol id="vk-1" viewBox="0 0 304.36 304.36"><path d="M261.945 175.576c10.096 9.857 20.752 19.131 29.807 29.982 4 4.822 7.787 9.798 10.684 15.394 4.105 7.955.387 16.709-6.746 17.184l-44.34-.02c-11.436.949-20.559-3.655-28.23-11.474-6.139-6.253-11.824-12.908-17.727-19.372-2.42-2.642-4.953-5.128-7.979-7.093-6.053-3.929-11.307-2.726-14.766 3.587-3.523 6.421-4.322 13.531-4.668 20.687-.475 10.441-3.631 13.186-14.119 13.664-22.414 1.057-43.686-2.334-63.447-13.641-17.422-9.968-30.932-24.04-42.691-39.971-22.895-31.021-40.428-65.108-56.186-100.15C-2.01 76.458.584 72.22 9.295 72.07c14.465-.281 28.928-.261 43.41-.02 5.879.086 9.771 3.458 12.041 9.012 7.826 19.243 17.402 37.551 29.422 54.521 3.201 4.518 6.465 9.036 11.113 12.216 5.142 3.521 9.057 2.354 11.476-3.374 1.535-3.632 2.207-7.544 2.553-11.434 1.146-13.383 1.297-26.743-.713-40.079-1.234-8.323-5.922-13.711-14.227-15.286-4.238-.803-3.607-2.38-1.555-4.799 3.564-4.172 6.916-6.769 13.598-6.769h50.111c7.889 1.557 9.641 5.101 10.721 13.039l.043 55.663c-.086 3.073 1.535 12.192 7.07 14.226 4.43 1.448 7.35-2.096 10.008-4.905 11.998-12.734 20.561-27.783 28.211-43.366 3.395-6.852 6.314-13.968 9.143-21.078 2.096-5.276 5.385-7.872 11.328-7.757l48.229.043c1.43 0 2.877.021 4.262.258 8.127 1.385 10.354 4.881 7.844 12.817-3.955 12.451-11.65 22.827-19.174 33.251-8.043 11.129-16.645 21.877-24.621 33.072-7.328 10.223-6.746 15.376 2.357 24.255zm0 0" fill-rule="evenodd" clip-rule="evenodd"/></symbol><symbol id="vk" viewBox="0 0 97.75 97.75"><path d="M48.875 0C21.883 0 0 21.882 0 48.875S21.883 97.75 48.875 97.75 97.75 75.868 97.75 48.875 75.867 0 48.875 0zm24.792 54.161c2.278 2.225 4.688 4.319 6.733 6.774.906 1.086 1.76 2.209 2.41 3.472.928 1.801.09 3.776-1.522 3.883l-10.013-.002c-2.586.214-4.644-.829-6.379-2.597-1.385-1.409-2.67-2.914-4.004-4.371-.545-.598-1.119-1.161-1.803-1.604-1.365-.888-2.551-.616-3.333.81-.797 1.451-.979 3.059-1.055 4.674-.109 2.361-.821 2.978-3.19 3.089-5.062.237-9.865-.531-14.329-3.083-3.938-2.251-6.986-5.428-9.642-9.025-5.172-7.012-9.133-14.708-12.692-22.625-.801-1.783-.215-2.737 1.752-2.774 3.268-.063 6.536-.055 9.804-.003 1.33.021 2.21.782 2.721 2.037 1.766 4.345 3.931 8.479 6.644 12.313.723 1.021 1.461 2.039 2.512 2.76 1.16.796 2.044.533 2.591-.762.35-.823.501-1.703.577-2.585.26-3.021.291-6.041-.159-9.05-.28-1.883-1.339-3.099-3.216-3.455-.956-.181-.816-.535-.351-1.081.807-.944 1.563-1.528 3.074-1.528l11.313-.002c1.783.35 2.183 1.15 2.425 2.946l.01 12.572c-.021.695.349 2.755 1.597 3.21 1 .33 1.66-.472 2.258-1.105 2.713-2.879 4.646-6.277 6.377-9.794.764-1.551 1.423-3.156 2.063-4.764.476-1.189 1.216-1.774 2.558-1.754l10.894.013c.321 0 .647.003.965.058 1.836.314 2.339 1.104 1.771 2.895-.894 2.814-2.631 5.158-4.329 7.508-1.82 2.516-3.761 4.944-5.563 7.471-1.656 2.31-1.525 3.473.531 5.479z"/></symbol><symbol id="whatsapp-2" viewBox="0 0 14102 14163"><path fill="#E5E5E5" d="M301 14163c-79 0-157-31-214-89-76-77-105-188-76-291l920-3363C358 9384 56 8211 56 7021 58 3149 3208 0 7079 0c1878 1 3642 732 4968 2059s2055 3091 2055 4967c-2 3871-3152 7021-7023 7021h-3c-1130 0-2251-276-3249-798l-3449 905c-26 6-51 9-77 9zm0 0z"/><path fill="#fff" d="M301 13862l954-3482C667 9361 357 8205 358 7021c1-3705 3016-6720 6721-6720 1798 1 3486 701 4755 1971s1967 2958 1967 4754c-2 3705-3018 6720-6722 6720h-3c-1125-1-2230-283-3212-818l-3563 934zm3728-2151l205 121c857 509 1840 778 2843 779h2c3079 0 5585-2506 5587-5585 0-1493-580-2896-1635-3952-1055-1055-2457-1637-3950-1638-3081 0-5587 2506-5588 5585-1 1055 294 2083 854 2972l133 212-565 2061 2114-555zm0 0z"/><path class="fil2" d="M535 13627l921-3361c-568-984-867-2100-867-3243 2-3577 2913-6487 6489-6487 1736 1 3365 677 4590 1903s1899 2856 1899 4589c-2 3577-2913 6487-6489 6487h-3c-1085 0-2153-273-3100-790l-3440 902zm0 0z" fill="#64B161"/><path class="fil1" d="M301 13862l954-3482C667 9361 357 8205 358 7021c1-3705 3016-6720 6721-6720 1798 1 3486 701 4755 1971s1967 2958 1967 4754c-2 3705-3018 6720-6722 6720h-3c-1125-1-2230-283-3212-818l-3563 934zm3728-2151l205 121c857 509 1840 778 2843 779h2c3079 0 5585-2506 5587-5585 0-1493-580-2896-1635-3952-1055-1055-2457-1637-3950-1638-3081 0-5587 2506-5588 5585-1 1055 294 2083 854 2972l133 212-565 2061 2114-555zm0 0z"/><path class="fil1" d="M5399 4212c-125-280-258-286-378-291-98-4-210-4-321-4-112 0-294 43-448 211s-588 574-588 1400c0 827 602 1625 686 1737s1162 1862 2869 2535c1418 560 1707 449 2015 421s993-407 1133-799 140-728 98-798-154-112-322-196-993-491-1147-547-266-84-378 85c-112 168-434 546-532 658s-196 126-364 42-708-261-1350-834c-499-445-836-995-935-1163-97-168-1-251 74-342 136-166 364-463 420-575s28-210-14-294-368-914-518-1246zm0 0z"/></symbol><symbol id="youtube-1" viewBox="0 0 512 512"><path d="M490.24 113.92c-13.888-24.704-28.96-29.248-59.648-30.976C399.936 80.864 322.848 80 256.064 80c-66.912 0-144.032.864-174.656 2.912-30.624 1.76-45.728 6.272-59.744 31.008C7.36 138.592 0 181.088 0 255.904v.256c0 74.496 7.36 117.312 21.664 141.728 14.016 24.704 29.088 29.184 59.712 31.264C112.032 430.944 189.152 432 256.064 432c66.784 0 143.872-1.056 174.56-2.816 30.688-2.08 45.76-6.56 59.648-31.264C504.704 373.504 512 330.688 512 256.192v-.16-.096c0-74.848-7.296-117.344-21.76-142.016zM192 352V160l160 96-160 96z"/></symbol><symbol id="youtube" viewBox="0 0 97.75 97.75"><path d="M39.969 59.587L61.91 48.211c-7.359-3.84-14.627-7.63-21.941-11.447v22.823z"/><path d="M48.875 0C21.883 0 0 21.882 0 48.875S21.883 97.75 48.875 97.75 97.75 75.868 97.75 48.875 75.867 0 48.875 0zm33.301 65.189c-.846 3.67-3.848 6.377-7.461 6.78-8.557.957-17.217.962-25.842.957-8.625.005-17.287 0-25.846-.957-3.613-.403-6.613-3.11-7.457-6.78-1.203-5.228-1.203-10.933-1.203-16.314s.014-11.088 1.217-16.314c.844-3.67 3.844-6.378 7.457-6.782 8.559-.956 17.221-.961 25.846-.956 8.623-.005 17.285 0 25.841.956 3.615.404 6.617 3.111 7.461 6.782 1.203 5.227 1.193 10.933 1.193 16.314s-.003 11.087-1.206 16.314z"/></symbol></svg>