<?xml version="1.0" encoding="UTF-8"?>
<!DOCTYPE svg PUBLIC "-//W3C//DTD SVG 1.1//EN" "http://www.w3.org/Graphics/SVG/1.1/DTD/svg11.dtd">
<svg xmlns="http://www.w3.org/2000/svg" xml:space="preserve" width="2352px" height="2362px" version="1.1" viewBox="0 0 14102 14163" xmlns:xlink="http://www.w3.org/1999/xlink">
  <path fill="#E5E5E5" d="M301 14163c-79 0-157-31-214-89-76-77-105-188-76-291l920-3363C358 9384 56 8211 56 7021 58 3149 3208 0 7079 0c1878 1 3642 732 4968 2059s2055 3091 2055 4967c-2 3871-3152 7021-7023 7021h-3c-1130 0-2251-276-3249-798l-3449 905c-26 6-51 9-77 9zm0 0z"></path>
  <path fill="white" d="M301 13862l954-3482C667 9361 357 8205 358 7021c1-3705 3016-6720 6721-6720 1798 1 3486 701 4755 1971s1967 2958 1967 4754c-2 3705-3018 6720-6722 6720h-3c-1125-1-2230-283-3212-818l-3563 934zm3728-2151l205 121c857 509 1840 778 2843 779h2c3079 0 5585-2506 5587-5585 0-1493-580-2896-1635-3952-1055-1055-2457-1637-3950-1638-3081 0-5587 2506-5588 5585-1 1055 294 2083 854 2972l133 212-565 2061 2114-555zm0 0z"></path>
  <path d="M535 13627l921-3361c-568-984-867-2100-867-3243 2-3577 2913-6487 6489-6487 1736 1 3365 677 4590 1903s1899 2856 1899 4589c-2 3577-2913 6487-6489 6487h-3c-1085 0-2153-273-3100-790l-3440 902zm0 0z" fill="#64B161"></path>
  <path fill="#FEFEFE" fill-rule="nonzero" d="M301 13862l954-3482C667 9361 357 8205 358 7021c1-3705 3016-6720 6721-6720 1798 1 3486 701 4755 1971s1967 2958 1967 4754c-2 3705-3018 6720-6722 6720h-3c-1125-1-2230-283-3212-818l-3563 934zm3728-2151l205 121c857 509 1840 778 2843 779h2c3079 0 5585-2506 5587-5585 0-1493-580-2896-1635-3952-1055-1055-2457-1637-3950-1638-3081 0-5587 2506-5588 5585-1 1055 294 2083 854 2972l133 212-565 2061 2114-555zm0 0z"></path>
  <path fill="#FEFEFE" fill-rule="nonzero" d="M5399 4212c-125-280-258-286-378-291-98-4-210-4-321-4-112 0-294 43-448 211s-588 574-588 1400c0 827 602 1625 686 1737s1162 1862 2869 2535c1418 560 1707 449 2015 421s993-407 1133-799 140-728 98-798-154-112-322-196-993-491-1147-547-266-84-378 85c-112 168-434 546-532 658s-196 126-364 42-708-261-1350-834c-499-445-836-995-935-1163-97-168-1-251 74-342 136-166 364-463 420-575s28-210-14-294-368-914-518-1246zm0 0z"></path>
</svg>
