<?xml version="1.0" standalone="no"?>
<!DOCTYPE svg PUBLIC "-//W3C//DTD SVG 20010904//EN"
 "http://www.w3.org/TR/2001/REC-SVG-20010904/DTD/svg10.dtd">
<svg version="1.0" xmlns="http://www.w3.org/2000/svg"
 width="260.000000pt" height="260.000000pt" viewBox="0 0 260.000000 260.000000"
 preserveAspectRatio="xMidYMid meet">
<metadata>
Created by potrace 1.11, written by Peter Selinger 2001-2013
</metadata>
<g transform="translate(0.000000,260.000000) scale(0.100000,-0.100000)"
fill="#000000" stroke="none">
<path d="M1320 2556 c0 -2 -11 -64 -25 -137 -14 -74 -28 -147 -31 -164 l-5
-29 28 24 c15 14 30 26 33 28 6 4 9 282 4 282 -2 0 -4 -2 -4 -4z"/>
<path d="M1841 2270 c-1 -41 -28 -70 -64 -71 l-32 -1 38 -10 c27 -7 42 -19 54
-41 15 -29 16 -30 23 -11 11 28 36 47 65 47 35 0 31 5 -14 17 -34 9 -42 16
-54 53 -12 34 -16 37 -16 17z"/>
<path d="M1238 2175 c-80 -61 -84 -66 -86 -105 -3 -49 -8 -50 99 32 72 55 76
60 76 98 0 22 -1 40 -2 40 -1 0 -40 -29 -87 -65z"/>
<path d="M1692 2115 c-2 -42 -25 -91 -51 -105 -11 -5 -37 -13 -58 -16 -48 -7
-56 -14 -16 -14 79 0 123 -42 126 -120 2 -45 12 -45 15 -1 6 75 37 107 119
121 28 4 38 8 23 10 -96 7 -130 35 -143 119 -8 45 -13 48 -15 6z"/>
<path d="M1140 1987 l-185 -133 -2 -214 c-1 -118 1 -222 4 -230 7 -18 12 -120
6 -120 -3 0 -33 20 -68 45 l-64 46 1 -29 c1 -23 13 -37 68 -75 l66 -47 0 -49
c-1 -27 -4 -52 -8 -56 -3 -4 -31 12 -62 34 -30 23 -58 41 -61 41 -3 0 -5 -11
-5 -24 0 -18 17 -36 68 -73 l68 -50 0 -56 c-1 -31 -2 -57 -4 -57 -2 0 -29 18
-61 40 -31 22 -60 40 -64 40 -4 0 -7 -11 -7 -23 0 -21 32 -50 123 -109 13 -8
18 -118 5 -118 -5 0 -24 11 -41 24 -18 13 -44 31 -60 41 -27 17 -27 17 -27 -8
0 -20 14 -36 65 -72 36 -26 65 -50 66 -53 4 -27 6 -112 2 -112 -3 0 -30 18
-62 40 -64 45 -71 47 -71 23 1 -11 30 -38 70 -66 52 -36 68 -52 65 -67 -5 -28
9 -33 34 -12 20 17 21 24 23 537 2 533 10 739 19 515 2 -63 4 -316 4 -562 0
-247 3 -448 6 -448 4 0 16 8 28 17 20 17 21 29 27 288 3 149 7 342 9 430 2 88
4 214 4 279 1 66 3 117 5 115 5 -4 9 -152 22 -744 3 -165 8 -302 9 -303 2 -2
17 4 34 14 27 16 31 24 32 64 0 42 3 165 13 620 3 96 5 235 5 309 1 74 3 132
6 130 2 -3 7 -133 11 -289 3 -157 8 -334 9 -395 1 -60 4 -174 5 -253 l2 -142
26 19 27 19 1 696 c0 383 0 696 0 696 -1 0 -85 -60 -186 -133z m-13 -289 c-3
-8 -6 -5 -6 6 -1 11 2 17 5 13 3 -3 4 -12 1 -19z"/>
<path d="M1852 1764 c-67 -43 -72 -48 -72 -81 0 -27 3 -33 13 -26 6 5 39 30
72 55 44 33 61 53 63 72 1 14 0 26 -1 26 -2 0 -36 -21 -75 -46z"/>
<path d="M1410 1781 c0 -6 4 -13 10 -16 6 -3 7 1 4 9 -7 18 -14 21 -14 7z"/>
<path d="M1410 1734 c0 -8 5 -12 10 -9 6 4 8 11 5 16 -9 14 -15 11 -15 -7z"/>
<path d="M1520 1679 c-1 -56 -4 -206 -15 -606 -4 -141 -2 -233 3 -233 31 0 33
29 27 457 -4 235 -9 430 -11 432 -2 2 -4 -20 -4 -50z"/>
<path d="M1409 1548 c0 -90 -2 -217 -5 -283 -12 -350 -11 -485 2 -485 7 0 16
4 19 10 5 9 6 272 2 752 -1 93 -5 168 -9 168 -5 0 -8 -73 -9 -162z"/>
<path d="M1812 1623 l-111 -78 -1 -69 c0 -53 3 -66 13 -59 59 45 194 148 201
155 9 7 20 128 12 128 -1 0 -53 -35 -114 -77z"/>
<path d="M662 1613 c-75 -52 -82 -59 -82 -90 0 -39 -7 -41 98 32 64 45 72 54
72 83 0 17 -1 32 -3 32 -2 0 -40 -25 -85 -57z"/>
<path d="M360 1625 c-2 -44 -9 -74 -21 -97 -13 -24 -66 -48 -111 -49 -21 -1
-25 -3 -13 -6 111 -26 132 -42 142 -117 l6 -51 12 54 c16 67 39 90 106 106 31
8 43 14 29 14 -47 2 -95 21 -110 43 -8 13 -20 48 -26 78 -9 42 -13 48 -14 25z"/>
<path d="M640 1474 c-58 -41 -129 -91 -157 -111 l-53 -36 0 -58 c0 -33 2 -59
5 -59 6 0 255 175 293 207 20 15 24 29 25 76 1 31 0 57 -3 57 -3 0 -52 -34
-110 -76z"/>
<path d="M1806 1443 l-106 -76 0 -59 c0 -32 3 -58 8 -57 4 0 54 35 112 78
l105 77 1 57 c1 31 -2 57 -6 57 -4 0 -55 -34 -114 -77z"/>
<path d="M1990 1493 c0 -12 43 -48 116 -98 149 -103 144 -100 144 -77 0 13
-39 46 -124 106 -69 47 -127 86 -130 86 -3 0 -6 -8 -6 -17z"/>
<path d="M583 1259 l-153 -110 0 -61 0 -60 28 19 c16 10 88 61 160 113 108 77
132 99 133 120 0 14 2 40 3 58 1 18 -2 32 -8 32 -6 -1 -80 -50 -163 -111z"/>
<path d="M1905 1339 c-5 -6 -53 -40 -105 -78 l-95 -67 -3 -64 c-2 -51 0 -61
10 -53 7 5 58 42 113 81 l100 71 3 60 c2 60 -3 70 -23 50z"/>
<path d="M1991 1315 c4 -16 232 -185 251 -185 14 0 8 27 -9 42 -29 24 -212
148 -229 155 -12 4 -15 1 -13 -12z"/>
<path d="M587 1087 l-156 -112 -1 -59 c0 -43 3 -57 13 -53 15 6 277 193 296
212 13 13 20 109 9 121 -2 1 -74 -47 -161 -109z"/>
<path d="M1808 1093 c-107 -77 -108 -78 -108 -119 l0 -42 63 14 c34 7 63 13
65 13 1 1 24 1 50 1 l49 0 0 105 c0 58 -2 105 -6 105 -3 0 -54 -35 -113 -77z"/>
<path d="M1990 1154 c0 -11 4 -24 8 -30 7 -11 239 -174 247 -174 3 0 5 11 5
24 0 20 -22 40 -115 106 -133 93 -145 99 -145 74z"/>
<path d="M588 927 l-157 -112 0 -50 c-1 -27 3 -56 7 -63 6 -9 50 19 158 99 82
62 150 113 152 114 5 4 7 125 2 124 -3 0 -76 -50 -162 -112z"/>
<path d="M1633 946 c0 -36 2 -66 4 -66 3 0 12 4 22 10 24 12 18 77 -8 103 -18
18 -18 17 -18 -47z"/>
<path d="M315 970 c-68 -33 -125 -85 -160 -144 -42 -73 -39 -146 5 -146 25 0
42 26 81 130 26 68 43 96 85 137 29 29 52 53 51 53 -1 0 -29 -14 -62 -30z"/>
<path d="M330 913 c-112 -241 -95 -476 46 -632 92 -102 205 -152 354 -156 188
-5 310 30 610 175 113 54 232 108 265 118 l60 20 -30 12 c-42 18 -141 24 -195
11 -24 -5 -46 -8 -48 -7 -7 8 120 61 196 82 101 28 244 28 333 1 136 -42 261
-154 296 -264 11 -35 20 -49 25 -41 6 10 8 10 8 -2 0 -26 17 4 39 70 39 116
38 310 -2 364 -11 15 -13 10 -14 -31 -1 -26 -8 -65 -16 -86 l-13 -39 0 69 c0
138 -66 243 -190 304 -175 86 -377 33 -694 -180 -69 -47 -160 -108 -202 -136
-99 -67 -218 -129 -288 -149 -56 -17 -200 -23 -223 -10 -9 6 -9 5 0 -7 11 -14
57 -38 143 -77 22 -9 19 -10 -20 -6 -115 14 -203 55 -275 129 -93 94 -138 222
-139 392 -1 57 -4 103 -7 103 -3 0 -12 -12 -19 -27z m1619 -57 c-2 -2 -42 -11
-88 -20 -103 -21 -225 -59 -311 -97 -36 -16 -56 -22 -45 -13 32 26 198 104
251 119 43 12 204 21 193 11z"/>
<path d="M739 865 c-4 -10 -137 -111 -236 -180 -24 -17 -43 -38 -43 -48 0 -30
30 -79 45 -73 8 3 66 44 129 91 l114 86 4 50 c3 49 -5 94 -13 74z"/>
<path d="M2265 792 c19 -13 42 -57 68 -127 14 -39 28 -78 32 -87 10 -25 44
-22 54 4 18 48 -26 130 -98 183 -27 19 -53 35 -57 35 -5 0 -4 -4 1 -8z"/>
<path d="M640 604 c-120 -92 -115 -84 -81 -123 33 -37 28 -38 118 28 l63 46 0
58 c0 31 -3 57 -7 56 -5 0 -46 -29 -93 -65z"/>
<path d="M693 487 c-23 -18 -42 -35 -43 -40 0 -10 46 -27 75 -27 17 0 25 6 27
23 4 29 -2 77 -11 76 -3 0 -25 -15 -48 -32z"/>
<path d="M820 483 c1 -25 43 -54 61 -42 12 8 11 12 -6 25 -41 32 -55 36 -55
17z"/>
<path d="M1735 384 c-76 -18 -206 -69 -365 -142 -107 -49 -232 -101 -278 -117
-92 -30 -84 -28 -205 -45 -48 -7 -85 -15 -83 -18 3 -2 49 -7 103 -9 166 -9
288 24 558 149 255 118 335 147 438 153 26 1 50 5 53 7 15 16 -171 34 -221 22z"/>
<path d="M2041 327 c-1 -36 -42 -77 -78 -78 -27 -1 -26 -1 7 -11 43 -12 52
-20 67 -61 l11 -32 7 32 c9 39 19 48 65 60 l35 10 -36 7 c-43 8 -54 18 -67 66
-10 33 -10 34 -11 7z"/>
</g>
</svg>
