<?xml version="1.0" encoding="UTF-8"?>
<!DOCTYPE svg PUBLIC "-//W3C//DTD SVG 1.1//EN" "http://www.w3.org/Graphics/SVG/1.1/DTD/svg11.dtd">
<!-- Creator: CorelDRAW X7 -->
<svg xmlns="http://www.w3.org/2000/svg" xml:space="preserve" width="119px" height="38px" version="1.1" style="shape-rendering:geometricPrecision; text-rendering:geometricPrecision; image-rendering:optimizeQuality; fill-rule:evenodd; clip-rule:evenodd"
viewBox="0 0 17902 5722"
 xmlns:xlink="http://www.w3.org/1999/xlink">
 <defs>
  <style type="text/css">
   <![CDATA[
    .fil4 {fill:#FEFEFE}
    .fil3 {fill:#E3E3E3}
    .fil0 {fill:#FEFEFE;fill-rule:nonzero}
    .fil1 {fill:#FF461E;fill-rule:nonzero}
    .fil2 {fill:#FEFEFE;fill-rule:nonzero;fill-opacity:0.501961}
   ]]>
  </style>
 </defs>
 <g id="Слой_x0020_1">
  <metadata id="CorelCorpID_0Corel-Layer"/>
  <g id="_1597394684800">
   <path class="fil0" d="M7000 4290l278 -1429 545 0c86,0 158,15 218,44 67,32 118,79 154,142 36,62 54,136 54,219 0,118 -30,225 -91,321 -61,97 -139,168 -237,213 -68,32 -141,48 -219,48l-266 0 -86 442 -350 0zm494 -742l170 0c49,0 88,-10 117,-30 72,-48 108,-121 108,-220 0,-42 -12,-76 -37,-100 -24,-25 -60,-37 -107,-37l-175 0 -76 387z"/>
   <path class="fil0" d="M8226 4290l278 -1429 545 0c85,0 158,15 218,44 67,32 118,79 154,142 36,63 54,136 54,220 0,117 -31,224 -91,320 -61,97 -140,168 -237,213 -68,32 -141,48 -220,48l-265 0 -86 442 -350 0zm494 -741l169 0c50,0 89,-10 118,-30 72,-48 108,-122 108,-220 0,-43 -12,-77 -37,-101 -24,-25 -60,-37 -107,-37l-176 0 -75 388z"/>
   <polygon class="fil0" points="9444,4290 9721,2861 10071,2861 9851,3990 10435,3990 10375,4290 "/>
   <path class="fil0" d="M10545 4290l743 -1429 401 0 198 1429 -350 0 -27 -300 -448 0 -144 300 -373 0zm653 -579l286 -1 -47 -499c-98,205 -152,317 -239,500z"/>
   <path class="fil0" d="M12056 4290l277 -1429 340 0 266 668 56 142 16 40c58,-295 108,-554 165,-850l350 0 -278 1429 -337 0c-115,-284 -227,-569 -340,-853 -57,292 -109,560 -166,853l-349 0z"/>
   <path class="fil0" d="M13551 3809c72,63 150,100 239,135 60,23 120,35 179,35 41,0 79,-10 114,-30 35,-20 52,-51 52,-92 0,-56 -90,-105 -134,-126 -38,-18 -79,-40 -124,-67 -44,-27 -85,-56 -123,-86 -38,-31 -70,-71 -96,-120 -26,-50 -39,-105 -39,-166 0,-130 52,-234 155,-313 103,-78 223,-118 360,-118 195,0 322,50 426,124l-63 325c-52,-44 -113,-75 -206,-108 -55,-20 -109,-29 -163,-29 -42,0 -80,10 -116,31 -36,20 -54,50 -54,88 0,24 13,46 38,68 26,22 58,42 97,60 39,18 80,40 125,67 44,26 86,54 124,85 39,30 71,70 97,120 26,49 39,104 39,165 0,120 -49,222 -147,306 -98,85 -221,127 -368,127 -97,0 -194,-17 -290,-50 -73,-26 -135,-60 -186,-104 0,0 0,-1 0,-1l64 -326z"/>
   <path class="fil1" d="M5579 3027c-449,-877 -1461,-2340 -3425,-2976 -443,-144 -911,23 -1163,414 -535,826 -1294,2432 -865,4448 97,455 474,777 939,801 981,51 2754,-92 4289,-1473 346,-311 437,-800 225,-1214z"/>
   <path class="fil2" d="M7569 2214l-57 290 -121 0 173 -894 113 0 -9 55 -14 51 3 0c23,-36 54,-65 93,-87 39,-23 82,-34 129,-34 76,0 134,24 177,71 43,47 64,112 64,193 0,117 -35,214 -105,291 -70,78 -151,116 -243,116 -44,0 -83,-9 -117,-28 -35,-19 -60,-47 -76,-83l-2 0c-1,18 -4,37 -8,59zm46 -219c0,49 12,88 36,119 25,31 60,46 107,46 60,0 114,-27 163,-81 49,-54 74,-125 74,-212 0,-51 -13,-91 -39,-120 -26,-30 -61,-44 -107,-44 -64,0 -119,30 -165,89 -46,60 -69,127 -69,203zm565 107c0,-39 9,-73 27,-103 19,-30 43,-54 71,-73 29,-18 63,-33 102,-44 38,-11 76,-19 112,-23 37,-5 74,-7 112,-7l33 0c3,-18 5,-36 5,-54 0,-66 -39,-99 -117,-99 -64,0 -128,20 -191,61l-33 -98c26,-17 62,-33 107,-46 45,-14 90,-21 135,-21 66,0 119,15 161,46 41,30 62,78 62,142 0,17 -2,40 -7,68l-77 400 -115 0 13 -64 12 -51 -2 0c-18,31 -47,61 -86,89 -40,27 -85,41 -136,41 -53,0 -98,-14 -134,-44 -36,-30 -54,-70 -54,-120zm121 -18c0,25 9,45 26,61 17,16 43,24 78,24 48,0 92,-21 133,-64 40,-43 67,-90 78,-141l4 -23 -31 0c-192,0 -288,48 -288,143zm518 91l62 -80c17,19 40,36 69,50 29,15 60,23 93,23 40,0 75,-12 105,-34 31,-22 46,-53 46,-93 0,-51 -37,-76 -110,-76l-81 0 16 -89 71 0c38,0 71,-9 99,-28 28,-19 41,-47 41,-83 0,-49 -34,-74 -103,-74 -52,0 -105,19 -160,56l-38 -82c63,-47 138,-70 224,-70 62,0 111,14 147,41 36,28 55,65 55,112 0,40 -11,75 -33,104 -21,29 -51,51 -89,65l0 2c57,23 86,66 86,130 0,65 -26,118 -78,158 -53,40 -115,59 -188,59 -46,0 -90,-8 -131,-26 -42,-17 -76,-39 -103,-65zm741 39l-57 290 -122 0 174 -894 112 0 -9 55 -13 51 2 0c24,-36 55,-65 94,-87 39,-23 82,-34 129,-34 75,0 134,24 177,71 42,47 64,112 64,193 0,117 -36,214 -106,291 -70,78 -151,116 -243,116 -44,0 -83,-9 -117,-28 -34,-19 -59,-47 -75,-83l-3 0c-1,18 -3,37 -7,59zm45 -219c0,49 13,88 37,119 24,31 60,46 106,46 60,0 115,-27 164,-81 49,-54 73,-125 73,-212 0,-51 -13,-91 -38,-120 -26,-30 -62,-44 -107,-44 -65,0 -120,30 -166,89 -46,60 -69,127 -69,203zm565 107c0,-39 9,-73 28,-103 18,-30 42,-54 71,-73 29,-18 62,-33 101,-44 39,-11 77,-19 113,-23 36,-5 73,-7 111,-7l33 0c4,-18 5,-36 5,-54 0,-66 -39,-99 -116,-99 -64,0 -128,20 -191,61l-33 -98c26,-17 61,-33 107,-46 45,-14 90,-21 134,-21 66,0 120,15 161,46 42,30 62,78 62,142 0,17 -2,40 -6,68l-77 400 -115 0 12 -64 13 -51 -3 0c-17,31 -46,61 -86,89 -39,27 -85,41 -135,41 -53,0 -98,-14 -134,-44 -37,-30 -55,-70 -55,-120zm122 -18c0,25 8,45 26,61 17,16 43,24 77,24 49,0 93,-21 133,-64 41,-43 67,-90 79,-141l4 -23 -32 0c-192,0 -287,48 -287,143zm593 -110c0,-58 9,-117 25,-178 17,-61 40,-115 72,-160 30,-50 69,-92 116,-126 46,-34 104,-64 174,-89l250 -99 27 101 -270 103c-72,29 -127,63 -163,102 -36,38 -63,88 -80,148l3 0c62,-72 139,-109 229,-109 73,0 131,22 174,64 43,43 64,101 64,174 0,97 -34,181 -101,253 -68,72 -154,108 -260,108 -86,0 -151,-26 -194,-78 -44,-51 -66,-123 -66,-214zm123 34c0,48 14,86 41,113 28,28 64,42 107,42 63,0 116,-25 160,-74 44,-49 66,-105 66,-170 0,-48 -14,-85 -41,-112 -28,-26 -63,-40 -106,-40 -60,0 -113,25 -158,73 -46,48 -69,104 -69,168zm606 -24c0,-107 40,-199 120,-275 80,-76 172,-114 275,-114 90,0 163,26 219,78 56,52 85,119 85,202 0,109 -41,201 -121,277 -81,76 -172,114 -275,114 -90,0 -163,-26 -219,-78 -56,-51 -84,-120 -84,-204zm125 -5c0,54 17,98 50,131 33,33 77,50 130,50 68,0 130,-27 185,-81 56,-54 83,-120 83,-198 0,-53 -17,-96 -50,-129 -34,-34 -77,-50 -130,-50 -69,0 -131,27 -186,81 -55,54 -82,119 -82,196zm779 272l104 -535 -223 0 20 -106 568 0 -20 106 -223 0 -103 535 -123 0zm466 0l124 -641 123 0 -51 259 90 0 218 -259 147 0 -275 320 0 2 176 319 -140 0 -143 -277 -93 0 -55 277 -121 0zm630 -149c0,-39 10,-73 28,-103 19,-30 42,-54 71,-73 29,-18 62,-33 101,-44 39,-11 77,-19 113,-23 36,-5 73,-7 111,-7l33 0c4,-18 5,-36 5,-54 0,-66 -38,-99 -116,-99 -64,0 -128,20 -191,61l-33 -98c26,-17 62,-33 107,-46 45,-14 90,-21 135,-21 66,0 119,15 160,46 42,30 63,78 63,142 0,17 -3,40 -7,68l-77 400 -115 0 12 -64 13 -51 -2 0c-18,31 -47,61 -87,89 -39,27 -84,41 -135,41 -53,0 -98,-14 -134,-44 -37,-30 -55,-70 -55,-120zm122 -18c0,25 8,45 26,61 17,16 43,24 78,24 48,0 92,-21 133,-64 40,-43 66,-90 78,-141l4 -23 -32 0c-191,0 -287,48 -287,143zm895 -96c0,-109 39,-202 118,-278 78,-77 171,-115 277,-115 105,0 185,31 242,93l-68 79c-20,-20 -45,-36 -76,-48 -31,-11 -61,-17 -92,-17 -73,0 -137,27 -193,81 -55,55 -83,120 -83,196 0,54 17,98 52,131 34,33 79,50 136,50 73,0 145,-29 214,-86l35 97c-32,28 -72,51 -119,69 -47,18 -94,26 -142,26 -92,0 -165,-25 -219,-77 -55,-51 -82,-118 -82,-201zm650 114c0,-39 9,-73 27,-103 19,-30 43,-54 71,-73 29,-18 63,-33 102,-44 39,-11 76,-19 112,-23 37,-5 74,-7 112,-7l33 0c3,-18 5,-36 5,-54 0,-66 -39,-99 -117,-99 -64,0 -128,20 -191,61l-33 -98c26,-17 62,-33 107,-46 45,-14 90,-21 135,-21 66,0 119,15 161,46 41,30 62,78 62,142 0,17 -2,40 -6,68l-78 400 -115 0 13 -64 12 -51 -2 0c-18,31 -47,61 -86,89 -40,27 -85,41 -136,41 -53,0 -98,-14 -134,-44 -36,-30 -54,-70 -54,-120zm121 -18c0,25 9,45 26,61 17,16 43,24 78,24 48,0 92,-21 133,-64 40,-43 67,-90 78,-141l4 -23 -31 0c-192,0 -288,48 -288,143zm1003 -547c-49,0 -89,-12 -122,-37 -32,-25 -48,-57 -48,-96 0,-13 3,-30 8,-48l97 0c-2,11 -3,22 -3,34 0,21 6,38 20,50 13,11 31,17 53,17 27,0 51,-8 71,-24 20,-16 33,-42 38,-77l98 0c-10,63 -34,109 -73,138 -40,29 -86,43 -139,43zm-439 714l124 -641 116 0 -74 377 -19 86 2 0c26,-34 51,-64 74,-89l350 -374 119 0 -125 641 -115 0 72 -376 20 -85 -2 0c-27,33 -51,62 -74,88l-351 373 -117 0zm910 0l104 -535 -223 0 20 -106 569 0 -20 106 -223 0 -104 535 -123 0zm439 -149c0,-39 10,-73 28,-103 19,-30 43,-54 71,-73 29,-18 63,-33 102,-44 38,-11 76,-19 112,-23 37,-5 74,-7 112,-7l33 0c3,-18 5,-36 5,-54 0,-66 -39,-99 -117,-99 -64,0 -128,20 -191,61l-33 -98c26,-17 62,-33 107,-46 45,-14 90,-21 135,-21 66,0 119,15 161,46 41,30 62,78 62,142 0,17 -2,40 -7,68l-77 400 -115 0 13 -64 12 -51 -2 0c-18,31 -47,61 -86,89 -40,27 -85,41 -136,41 -53,0 -98,-14 -134,-44 -36,-30 -55,-70 -55,-120zm122 -18c0,25 9,45 26,61 17,16 43,24 78,24 48,0 92,-21 133,-64 40,-43 67,-90 78,-141l4 -23 -32 0c-191,0 -287,48 -287,143z"/>
   <polygon class="fil3" points="1835,1434 1586,4288 2771,3759 "/>
   <polygon class="fil4" points="2770,3760 4106,3606 1834,1434 "/>
   <path class="fil0" d="M14596 4284l61 -323 323 0 -62 323 -322 0zm508 0l274 -1408 524 0c82,0 151,11 206,33 141,57 211,164 211,323 0,96 -24,190 -73,281 -48,91 -122,156 -220,196l0 4c9,16 21,44 35,84l181 487 -370 0 -158 -475 -173 0 -92 475 -345 0zm494 -770l148 0c63,0 115,-19 157,-57 41,-38 62,-91 62,-160 0,-40 -13,-72 -39,-93 -25,-22 -61,-33 -105,-33l-156 0 -67 343zm786 356c0,-36 4,-75 12,-114l171 -880 345 0 -173 890c-4,20 -6,38 -6,55 0,55 18,98 55,127 37,30 87,44 152,44 76,0 139,-19 190,-58 50,-38 83,-95 97,-168l173 -890 345 0 -175 900c-32,160 -105,289 -220,386 -115,97 -255,145 -422,145 -155,0 -284,-38 -388,-116 -104,-77 -156,-184 -156,-321z"/>
  </g>
 </g>
</svg>
